<?xml version="1.0" encoding="utf-8"?>
<!-- Generator: Adobe Illustrator 22.0.1, SVG Export Plug-In . SVG Version: 6.00 Build 0)  -->
<svg version="1.1" id="Layer_1" xmlns="http://www.w3.org/2000/svg" xmlns:xlink="http://www.w3.org/1999/xlink" x="0px" y="0px"
	 viewBox="0 0 576 512" style="enable-background:new 0 0 576 512;" xml:space="preserve">
<style type="text/css">
	.st0{fill:#E19B67;}
</style>
<g>
	<path class="st0" d="M288.5,39.2l239.3,210.4h-16h-38.2l0.2,38.2l0.7,160c0,1-0.1,2.2-0.3,3.8l-0.2,2.1v2.1V472c0,1.1-0.9,2-2,2
		h-12.4c-1.7-0.3-3.7-0.4-5.9-0.4c-0.4,0-0.8,0-1.2,0c-0.4,0-0.8,0-1.2,0c-2.3,0-4.3,0.2-6,0.4H392c-1.1,0-2-0.9-2-2v-88
		c0-38.6-31.4-70-70-70h-64c-38.6,0-70,31.4-70,70v88c0,1.1-0.9,2-2,2l-55.9,0c-0.3,0-1.3-0.1-2-0.1l-2.8-0.2l-2.8,0.2
		c-0.3,0-0.6,0-0.8,0.1H104c-1.1,0-2-0.9-2-2V360c0-0.1,0-0.2,0-0.3l0.1-1.3v-1.3v-69.6v-38h-38h-17L288.5,39.2 M288.4,0
		c-7,0-15,1-22,8L10,231.5c-7,7-10,15-10,24c0,18,14,32.1,32,32.1h32v69.6c-0.1,0.9-0.1,1.9-0.1,2.8v112c0,22.1,17.9,40,40,40h16
		c1.2,0,2.4-0.1,3.6-0.2c1.5,0.1,3,0.2,4.5,0.2H184c22.1,0,40-17.9,40-40v-88c0-17.7,14.3-32,32-32h64c17.7,0,32,14.3,32,32v88
		c0,22.1,17.9,40,40,40h56.5c1,0,1.9-0.4,2.9-0.4c0.4,0,0.9,0.1,1.3,0.3c0.3-0.2,0.7-0.3,1-0.3c0.8,0,1.5,0.4,2.3,0.4h16
		c22.1,0,40-17.9,40-40v-16.2c0.3-2.7,0.5-5.3,0.5-8.1l-0.7-160.1h32c17,0,32-14.1,32-32.1c1.1-9-3-17-11-24L309.5,7
		C303.4,2,295.4,0,288.4,0L288.4,0z"/>
</g>
</svg>
